<svg width="4801" height="4800" viewBox="0 0 4801 4800" fill="none" xmlns="http://www.w3.org/2000/svg">
<g clip-path="url(#clip0_1_3)">
<path d="M901.74 3142.26C867.314 3107.85 833.883 3074.45 801.453 3042.05C801.473 3035.92 804.111 3034.02 807.679 3033.74C813.65 3033.28 819.658 3033.19 825.652 3033.17C979.617 3032.69 1133.58 3032.18 1287.55 3031.84C1318.92 3031.77 1313.14 3029.27 1336.18 3052.17C1436.41 3151.77 1536.52 3251.49 1636.66 3351.17C1703.74 3417.93 1770.81 3484.7 1837.89 3551.46C1899.78 3613.05 1961.67 3674.64 2023.58 3736.21C2093.04 3805.3 2162.54 3874.35 2232.01 3943.44C2293.92 4005.01 2355.81 4066.59 2417.7 4128.17C2471.08 4181.3 2524.43 4234.46 2577.88 4287.52C2583.46 4293.07 2588.39 4299.58 2595.93 4302.43C2604.26 4300.81 2608.94 4294.82 2614 4289.76C2657.79 4245.89 2701.42 4201.86 2745.12 4157.89C2757.8 4145.13 2770.59 4132.48 2783.28 4119.72C2867.41 4035.13 2951.6 3950.6 3035.63 3865.91C3099.01 3802.05 3162.09 3737.89 3225.46 3674.02C3264.42 3634.75 3303.81 3595.9 3342.8 3556.66C3408.09 3490.93 3473.12 3424.96 3538.42 3359.24C3638.02 3259.02 3737.83 3159 3837.27 3058.62C3845.93 3049.88 3855.03 3045.86 3867.23 3045.95C3912.55 3046.31 3957.87 3046.03 4003.2 3046.1C4008.33 3046.11 4013.92 3045.23 4018.85 3051.01C4017.02 3053.62 4015.5 3056.43 4013.4 3058.69C4008.4 3064.05 4003.14 3069.17 3997.97 3074.36C3869.08 3203.74 3740.2 3333.13 3611.29 3462.48C3529.9 3544.16 3448.42 3625.74 3367.05 3707.43C3263.1 3811.79 3159.25 3916.26 3055.31 4020.62C2963.12 4113.18 2870.87 4205.67 2778.64 4298.18C2696.29 4380.78 2613.94 4463.38 2531.59 4545.98C2500.06 4577.61 2468.6 4609.29 2436.97 4640.81C2431.9 4645.87 2427.63 4652.22 2419.46 4654.16C2411.75 4651.41 2406.86 4644.85 2401.29 4639.31C2356.41 4594.64 2311.64 4549.86 2266.84 4505.12C2190.9 4429.3 2114.97 4353.47 2039.03 4277.65C1851.32 4090.22 1663.63 3902.76 1475.86 3715.38C1432.45 3672.07 1388.61 3629.2 1345.23 3585.86C1197.67 3438.39 1050.23 3290.81 901.74 3142.26Z" fill="black"/>
<path d="M1691.45 3120.55C1669.2 3098.38 1647.87 3077.31 1626.79 3055.98C1622.32 3051.46 1616.61 3047.35 1615.99 3038.57C1619.33 3037.65 1622.27 3036.31 1625.28 3036.14C1632.59 3035.72 1639.93 3035.78 1647.26 3035.76C1821.89 3035.42 1996.51 3035.21 2171.14 3034.74C2510.39 3033.83 2849.64 3032.79 3188.89 3031.8C3198.89 3031.78 3208.89 3031.66 3218.88 3031.93C3222.65 3032.03 3226.39 3033.11 3231.95 3034.06C3229.83 3038.24 3228.98 3041.47 3226.97 3043.62C3219.71 3051.41 3212.03 3058.82 3204.55 3066.42C3131.58 3140.48 3058.67 3214.59 2985.64 3288.59C2950.53 3324.17 2915.13 3359.45 2880.02 3395.03C2807.94 3468.09 2736 3541.3 2663.91 3614.35C2629.74 3648.98 2595.32 3683.36 2561.09 3717.93C2521.24 3758.2 2481.52 3798.59 2441.63 3838.81C2436.56 3843.93 2432.45 3850.38 2424.9 3852.66C2417.37 3852.06 2413.61 3845.99 2409.02 3841.42C2386.31 3818.89 2363.78 3796.18 2341.22 3773.49C2261.32 3693.16 2181.45 3612.8 2101.54 3532.48C2026.33 3456.88 1951.08 3381.33 1875.84 3305.75C1814.71 3244.35 1753.58 3182.96 1691.45 3120.55Z" fill="black"/>
<path d="M2476.76 930.803C2480.34 956.259 2483.78 979.954 2486.98 1003.68C2491.08 1034.01 2495.02 1064.37 2498.97 1094.72C2506.46 1152.1 2513.75 1209.51 2521.43 1266.86C2525.66 1298.49 2530.73 1330.01 2535.02 1361.63C2539.76 1396.57 2543.88 1431.6 2548.55 1466.55C2553.31 1502.16 2558.51 1537.7 2563.35 1573.29C2567.3 1602.29 2570.96 1631.32 2574.83 1660.33C2580.36 1701.88 2585.97 1743.42 2591.53 1784.96C2591.88 1787.6 2591.79 1790.31 2592.31 1792.91C2595.21 1807.2 2589.15 1816.12 2577.33 1824.29C2528.54 1858.01 2480.4 1892.66 2432 1926.94C2415.63 1938.53 2414.71 1938.7 2398.66 1927.37C2349.11 1892.4 2299.69 1857.26 2250.23 1822.18C2248.05 1820.64 2246.05 1818.85 2243.83 1817.38C2237.5 1813.19 2235.68 1807.1 2236.52 1800C2237.52 1791.42 2238.76 1782.86 2239.92 1774.3C2246.46 1726.18 2253.04 1678.07 2259.54 1629.94C2264.79 1591.07 2269.88 1552.17 2275.14 1513.29C2281.91 1463.18 2288.86 1413.1 2295.56 1362.98C2299.62 1332.65 2303.21 1302.25 2307.27 1271.92C2313.62 1224.46 2320.36 1177.04 2326.64 1129.57C2333.09 1080.76 2339.08 1031.9 2345.48 983.086C2349.38 953.416 2353.79 923.815 2357.76 894.153C2363.04 854.585 2368.01 814.976 2373.32 775.411C2376.42 752.34 2380.04 729.34 2383.21 706.278C2387.19 677.286 2390.91 648.258 2394.81 619.255C2399.24 586.275 2403.77 553.309 2408.17 520.325C2408.87 515.049 2408.67 509.633 2409.65 504.422C2410.33 500.771 2412.29 497.359 2414.18 492.58C2416.54 495.17 2418.59 496.359 2418.82 497.834C2421.6 515.563 2424.26 533.315 2426.67 551.098C2432.31 592.632 2437.83 634.182 2443.33 675.734C2447.25 705.411 2451.04 735.106 2454.95 764.786C2460.07 803.711 2465.27 842.625 2470.4 881.549C2472.48 897.378 2474.47 913.219 2476.76 930.803Z" fill="black"/>
<path d="M4293.89 2890.19C4262.19 2849.74 4231.32 2810.45 4200.65 2771.01C4158.12 2716.32 4115.77 2661.49 4073.23 2606.82C4068.42 2600.64 4064.16 2593.78 4056.16 2588.51C4054.69 2591.59 4052.94 2593.68 4052.77 2595.89C4052.28 2602.52 4052.31 2609.2 4052.31 2615.86C4052.29 2711.16 4052.18 2806.46 4052.4 2901.76C4052.44 2919.03 4053.77 2936.3 4054.61 2953.56C4055 2961.6 4051.53 2966.12 4043.5 2967.16C4040.21 2967.59 4036.85 2967.63 4033.52 2967.64C4010.2 2967.68 3986.87 2967.69 3963.55 2967.64C3959.56 2967.63 3955.53 2967.53 3951.59 2966.97C3943.43 2965.8 3940.63 2961.72 3941.11 2953.04C3941.85 2939.76 3942.91 2926.47 3942.92 2913.18C3943.02 2679.93 3943.02 2446.67 3942.93 2213.42C3942.92 2200.12 3942.02 2186.82 3941.39 2173.53C3940.98 2164.98 3943.7 2161.64 3952.71 2160.8C3957.35 2160.37 3962.03 2160.41 3966.7 2160.41C4037.34 2160.39 4107.98 2160.3 4178.62 2160.52C4187.88 2160.55 4197.29 2161.35 4206.34 2163.23C4224.57 2167.01 4243.18 2170.15 4260.59 2176.43C4321.67 2198.49 4367.04 2237.79 4384.47 2302.13C4401.87 2366.39 4388.72 2424.68 4342.84 2474.55C4316.93 2502.7 4285.06 2521.59 4249.91 2535.15C4231.95 2542.07 4213.11 2546.71 4194.71 2552.49C4187.89 2554.63 4180.3 2554.72 4174.83 2558.95C4172.46 2565.27 4176.35 2568.59 4179.1 2572.13C4199.48 2598.47 4219.91 2624.78 4240.41 2651.03C4280.19 2701.96 4320.03 2752.83 4359.81 2803.76C4384.82 2835.79 4409.61 2867.99 4434.83 2899.86C4441.84 2908.71 4449.82 2916.82 4457.69 2924.95C4466.33 2933.86 4476.67 2939.51 4489.47 2939.65C4491.47 2939.67 4493.47 2939.79 4495.45 2940.05C4505.42 2941.31 4508.09 2944.4 4507.87 2954.3C4507.67 2962.89 4504.72 2966.81 4496 2967.12C4478.69 2967.72 4461.28 2968.53 4444.05 2967.35C4423.54 2965.94 4402.87 2965.13 4382.73 2960.08C4364.23 2955.44 4347.48 2947.3 4334.03 2933.85C4320.4 2920.22 4307.84 2905.51 4293.89 2890.19ZM4277.19 2369.64C4276.44 2351.71 4276.91 2333.63 4274.65 2315.9C4271.08 2287.91 4262.09 2261.4 4245.54 2238.16C4224.53 2208.64 4196.08 2192.43 4159.31 2192.32C4130.69 2192.24 4102.07 2192.11 4073.46 2192.4C4054.63 2192.59 4052.95 2194.54 4052.35 2212.95C4052.31 2214.28 4052.31 2215.62 4052.31 2216.95C4052.31 2314.77 4052.3 2412.6 4052.33 2510.43C4052.33 2514.42 4052.34 2518.44 4052.78 2522.39C4053.55 2529.35 4057.12 2533.14 4064.1 2534.21C4068.02 2534.81 4072.1 2535.13 4076.04 2534.79C4089.25 2533.66 4102.51 2532.67 4115.62 2530.72C4142.12 2526.77 4167.5 2519 4191.13 2506.16C4243.82 2477.54 4272.47 2433.27 4277.19 2369.64Z" fill="black"/>
<path d="M2695.93 2967.75C2636.64 2967.74 2579.34 2967.76 2522.04 2967.72C2515.38 2967.72 2508.69 2967.75 2502.07 2967.16C2493.91 2966.44 2489.95 2962.04 2490.98 2953.78C2495.01 2921.22 2492.84 2888.55 2492.88 2855.95C2493.13 2649.4 2493.05 2442.84 2492.93 2236.29C2492.92 2215.66 2491.94 2195.04 2491.33 2174.42C2491.04 2164.67 2493.94 2161.24 2503.96 2160.62C2509.94 2160.26 2515.95 2160.36 2521.95 2160.36C2582.58 2160.35 2643.22 2160.94 2703.85 2160.12C2737.5 2159.66 2770.1 2164.42 2802.4 2173.2C2891.03 2197.3 2958.27 2249.6 3005.08 2328.02C3032.68 2374.26 3049.62 2424.5 3057.86 2477.86C3064.29 2519.51 3067.17 2561.24 3064.39 2603.26C3059.82 2672.45 3044.6 2738.8 3010.86 2800.15C2985.01 2847.13 2950.49 2886.35 2905.81 2915.95C2871.02 2939 2832.82 2954.29 2791.32 2960.65C2760.36 2965.4 2729.24 2967.92 2695.93 2967.75ZM2955.58 2613.31C2955 2572.76 2957.05 2532.25 2952.26 2491.66C2946.11 2439.65 2934.19 2389.47 2912.37 2341.87C2894.99 2303.93 2871.57 2270.25 2839.55 2242.9C2801.03 2210.01 2756.3 2193.64 2705.98 2192.43C2680.68 2191.83 2655.36 2192.26 2630.05 2192.37C2624.07 2192.39 2618.06 2192.7 2612.14 2193.48C2607.87 2194.04 2604.7 2197.01 2604.21 2201.34C2603.38 2208.59 2602.86 2215.91 2602.86 2223.21C2602.79 2450.35 2602.8 2677.48 2602.83 2904.62C2602.83 2910.61 2602.81 2916.63 2603.38 2922.58C2604.35 2932.58 2607.02 2935.1 2617.17 2935.94C2622.47 2936.38 2627.82 2936.32 2633.15 2936.33C2657.13 2936.37 2681.11 2936.39 2705.08 2936.34C2723.03 2936.31 2740.84 2936.02 2758.74 2932.89C2785.53 2928.21 2809.89 2918.76 2831.98 2903.04C2864.79 2879.7 2888.66 2848.96 2906.6 2813.32C2937.67 2751.62 2950.94 2685.45 2955.58 2613.31Z" fill="black"/>
<path d="M3333.96 2201.87C3370.23 2179.52 3408.05 2164.94 3448.7 2158.91C3479.57 2154.33 3510.66 2149.85 3542.03 2155.67C3559.02 2158.83 3576.38 2160.31 3593.1 2164.46C3652.3 2179.14 3702.19 2209.72 3743.42 2254.64C3778.25 2292.57 3801.99 2336.92 3819.63 2384.89C3833.04 2421.38 3839.58 2459.29 3844.69 2497.68C3849.21 2531.6 3849.17 2565.66 3847.18 2599.42C3841.96 2688.05 3819.02 2771.32 3765.73 2844.27C3732.3 2890.03 3689.85 2924.85 3637.69 2946.58C3599.42 2962.52 3559.3 2971.67 3517.26 2971.84C3475.59 2972.01 3435.06 2966.82 3395.46 2953.54C3354.24 2939.72 3318.61 2917.06 3287.07 2887.55C3250.91 2853.73 3224.9 2812.89 3205.77 2767.64C3186.19 2721.32 3174.88 2672.94 3170.02 2622.77C3166.98 2591.44 3166.3 2560.11 3167.99 2528.95C3172.1 2452.91 3189.18 2380.08 3228.11 2313.56C3254.46 2268.55 3288.75 2231.02 3333.96 2201.87ZM3400.24 2901.97C3404.01 2904.73 3407.67 2907.63 3411.55 2910.21C3465.37 2946.05 3521.98 2950.22 3580.48 2923.54C3616.76 2906.99 3643.29 2879.15 3664.15 2845.66C3678.65 2822.37 3689.89 2797.47 3698.88 2771.61C3720.31 2710.04 3728.12 2646.03 3731.32 2581.38C3732.47 2558.14 3731.08 2534.89 3728.66 2511.59C3726.25 2488.45 3724.65 2465.28 3720.79 2442.27C3713.02 2396 3700.26 2351.33 3679.81 2309.04C3663.7 2275.72 3642.79 2246.2 3613.58 2222.51C3551.07 2171.82 3459.69 2173.28 3398.2 2225.94C3367.66 2252.09 3346.34 2284.85 3330.25 2321.12C3304.27 2379.65 3291.31 2441.76 3287.82 2505.11C3284.52 2564.86 3284.79 2624.94 3295.25 2684.42C3304.42 2736.59 3318.42 2787.05 3344.63 2833.48C3358.79 2858.56 3375.51 2881.71 3400.24 2901.97Z" fill="black"/>
<path d="M1294.31 2817.82C1263.78 2722.41 1233.71 2628.54 1203.68 2534.65C1195.94 2510.44 1195.4 2509.82 1170.29 2509.63C1146.3 2509.46 1122.31 2509.56 1098.32 2509.63C1093.66 2509.64 1089 2509.91 1084.35 2510.27C1076.92 2510.85 1072.04 2514.77 1069.76 2521.9C1068.54 2525.7 1067.16 2529.46 1066.06 2533.3C1035.89 2638.27 1005.64 2743.21 975.677 2848.24C967.276 2877.69 959.661 2907.36 951.877 2936.98C949.863 2944.65 948.578 2952.51 946.901 2960.55C935.921 2966.51 924.564 2964.4 913.495 2963.52C906.342 2962.96 903.636 2957.91 906.012 2950.45C910.458 2936.49 915.567 2922.73 919.758 2908.7C941.291 2836.6 962.687 2764.46 984.005 2692.29C1016.46 2582.44 1048.79 2472.55 1081.21 2362.69C1100.8 2296.26 1120.45 2229.85 1140.1 2163.43C1140.85 2160.88 1141.77 2158.38 1142.66 2155.87C1147.87 2141.08 1150.94 2139.2 1165.8 2139.79C1173.6 2140.1 1178.13 2143.88 1180.58 2150.85C1186.11 2166.56 1191.75 2182.23 1197.13 2197.98C1218 2259.13 1238.76 2320.32 1259.63 2381.48C1304.81 2513.86 1350.01 2646.23 1395.24 2778.6C1409.24 2819.57 1423.16 2860.57 1437.56 2901.41C1443.09 2917.09 1449.84 2932.34 1456.06 2947.78C1457.05 2950.24 1458.41 2952.58 1459.12 2955.12C1460.38 2959.69 1457.45 2965.1 1452.91 2966.15C1449.05 2967.04 1445.02 2967.56 1441.07 2967.57C1413.75 2967.69 1386.41 2967.17 1359.11 2967.85C1346.22 2968.17 1339.27 2962.53 1335.83 2950.93C1335.07 2948.38 1334.15 2945.88 1333.36 2943.34C1320.49 2902.01 1307.64 2860.68 1294.31 2817.82ZM1129.45 2319.16C1127.32 2324.72 1124.8 2330.16 1123.14 2335.86C1112.93 2370.96 1102.89 2406.11 1092.84 2441.26C1091.02 2447.66 1089.1 2454.05 1087.77 2460.55C1085.79 2470.24 1088.86 2474.53 1098.83 2474.75C1119.45 2475.2 1140.07 2475.2 1160.69 2475.02C1183.92 2474.82 1185.44 2472.66 1178.53 2450.89C1166.27 2412.23 1153.94 2373.59 1141.57 2334.96C1139.96 2329.92 1138.18 2324.9 1135.96 2320.1C1135.39 2318.85 1132.88 2318.5 1129.45 2319.16Z" fill="black"/>
<path d="M2355.92 2160.37C2370.56 2160.51 2383.24 2160.29 2395.87 2160.93C2404.63 2161.38 2407.64 2164.77 2407.96 2173.59C2408.17 2179.45 2407.38 2185.34 2407.1 2190.25C2398.23 2197.36 2389.12 2196.36 2380.87 2195.07C2352.37 2190.63 2323.68 2192.22 2295.1 2191.78C2243.81 2190.98 2192.5 2191.53 2141.19 2191.57C2135.2 2191.58 2129.18 2191.67 2123.24 2192.32C2116.83 2193.03 2114.06 2196.03 2113.21 2202.75C2112.63 2207.36 2112.52 2212.05 2112.52 2216.71C2112.48 2299.99 2112.44 2383.28 2112.56 2466.57C2112.57 2474.39 2111.09 2482.71 2117.98 2490.57C2122.16 2491.07 2127.36 2492.19 2132.57 2492.21C2176.54 2492.32 2220.52 2492.33 2264.49 2492.1C2271.1 2492.07 2277.69 2490.28 2284.31 2489.97C2297.59 2489.35 2310.91 2488.7 2324.18 2489.02C2332.66 2489.22 2335.56 2493.03 2336.5 2501.74C2336.65 2503.06 2336.72 2504.4 2336.77 2505.73C2337.43 2523.68 2334.5 2526.28 2316.49 2524.42C2310.54 2523.8 2304.52 2523.66 2298.53 2523.65C2245.23 2523.57 2191.92 2523.51 2138.62 2523.6C2131.41 2523.61 2124.2 2524.46 2116.74 2524.93C2115.18 2529.87 2113.35 2533.51 2112.98 2537.3C2112.34 2543.91 2112.48 2550.6 2112.48 2557.26C2112.46 2672.53 2112.46 2787.8 2112.48 2903.07C2112.48 2909.07 2112.36 2915.08 2112.78 2921.05C2113.59 2932.62 2116.1 2935.17 2127.07 2936.05C2131.05 2936.37 2135.06 2936.34 2139.06 2936.34C2193.03 2936.35 2247 2936.39 2300.97 2936.29C2308.28 2936.28 2315.6 2935.64 2322.91 2935.16C2336.18 2934.31 2349.45 2933.39 2362.72 2932.45C2373.31 2931.7 2383.91 2930.9 2394.5 2930.08C2401.11 2929.57 2407.91 2928.16 2412.84 2934.35C2413.28 2935.71 2414.16 2937.01 2414 2938.17C2410.06 2966.77 2409.16 2967.68 2380.38 2967.7C2263.78 2967.76 2147.18 2967.73 2030.58 2967.69C2024.59 2967.69 2018.56 2967.65 2012.62 2966.97C2005.35 2966.14 2002.1 2962.15 2002.32 2954.83C2002.6 2945.52 2003.52 2936.22 2003.57 2926.91C2003.75 2892.27 2003.7 2857.62 2003.7 2822.97C2003.7 2621.75 2003.7 2420.52 2003.63 2219.3C2003.62 2203.99 2003.01 2188.67 2002.67 2173.36C2002.47 2164.44 2004.89 2161.51 2014.14 2160.8C2020.77 2160.29 2027.45 2160.38 2034.11 2160.38C2140.72 2160.36 2247.33 2160.37 2355.92 2160.37Z" fill="black"/>
<path d="M591.443 2960.87C571.064 2903.57 551.194 2847.72 531.333 2791.87C494.512 2688.32 457.859 2584.71 420.833 2481.24C385.38 2382.16 349.544 2283.22 313.864 2184.22C312.961 2181.72 311.796 2179.3 310.957 2176.78C308.263 2168.67 312.567 2160.62 322.673 2160.63C345.992 2160.67 369.311 2160.45 392.629 2160.41C400.623 2160.39 408.635 2160.28 416.606 2160.76C425.375 2161.28 427.882 2163.77 430.673 2172.2C457.043 2251.85 483.379 2331.51 509.882 2411.11C536.599 2491.36 563.444 2571.57 590.33 2651.77C605.571 2697.23 620.913 2742.65 636.479 2788C638.289 2793.28 638.403 2800.22 645.75 2802.37C651.769 2797.08 652.532 2789.52 654.462 2782.64C666.689 2739.04 678.714 2695.4 690.821 2651.77C724.825 2529.24 759.019 2406.76 792.732 2284.15C802.783 2247.59 814.225 2211.35 820.003 2173.71C821.554 2163.61 824.303 2161.32 834.37 2160.7C840.336 2160.33 846.377 2160.36 852.334 2160.85C861.306 2161.57 864.224 2165.89 861.947 2174.12C861.77 2174.76 861.527 2175.38 861.298 2176.01C841.853 2229.27 828.84 2284.44 812.983 2338.76C788.171 2423.76 764.564 2509.11 740.299 2594.27C711.29 2696.08 682.108 2797.84 653.047 2899.64C647.38 2919.49 641.917 2939.4 636.378 2959.28C635.663 2961.85 635.213 2964.49 634.367 2967.01C629.904 2980.29 626.191 2982.78 612.636 2982.47C604.636 2982.28 598.261 2979.96 595.435 2971.68C594.361 2968.53 593.12 2965.44 591.443 2960.87Z" fill="black"/>
<path d="M1630.75 2934.44C1639.7 2935.56 1647 2936.29 1654.31 2936.3C1707.64 2936.4 1760.97 2936.48 1814.3 2936.25C1824.92 2936.2 1835.53 2934.77 1846.14 2933.99C1852.78 2933.49 1859.42 2932.98 1866.07 2932.52C1879.33 2931.59 1892.58 2930.6 1905.85 2929.8C1913.07 2929.37 1920.73 2927.78 1926.49 2936.48C1925.18 2942.72 1923.79 2949.87 1922.14 2956.96C1920.79 2962.77 1916.91 2966.27 1911.04 2966.93C1905.75 2967.52 1900.4 2967.68 1895.07 2967.68C1776.41 2967.72 1657.75 2967.71 1539.09 2967.7C1535.76 2967.7 1532.41 2967.7 1529.09 2967.46C1516.59 2966.53 1511.99 2962.12 1513.93 2949.52C1518.04 2922.95 1516.29 2896.29 1516.32 2869.69C1516.5 2656.36 1516.47 2443.04 1516.31 2229.71C1516.3 2213.1 1514.8 2196.5 1514 2179.89C1513.9 2177.89 1513.67 2175.89 1513.76 2173.91C1514.09 2165.92 1517.94 2161.72 1525.85 2160.79C1528.49 2160.48 1531.17 2160.44 1533.83 2160.43C1557.83 2160.41 1581.83 2160.4 1605.83 2160.44C1609.16 2160.45 1612.52 2160.5 1615.8 2160.99C1622.81 2162.03 1626.11 2165.67 1626.58 2173.1C1626.88 2177.75 1626.96 2182.47 1626.43 2187.08C1623.27 2214.99 1624.28 2242.99 1624.29 2270.98C1624.38 2480.3 1624.34 2689.63 1624.35 2898.95C1624.35 2906.28 1623.97 2913.67 1624.75 2920.93C1625.22 2925.3 1627.59 2929.46 1630.75 2934.44Z" fill="black"/>
<path d="M2151.88 719.984C2198.04 825.089 2243.63 928.801 2289.2 1032.52C2291.88 1038.62 2293.91 1045.08 2297.23 1050.81C2305.48 1065.05 2304.68 1080.19 2302.66 1095.52C2296.02 1145.64 2289.42 1195.77 2282.55 1245.85C2278.12 1278.15 2273.05 1310.35 2268.63 1342.65C2264.66 1371.66 2261.28 1400.75 2257.47 1429.78C2253.39 1460.8 2249.06 1491.77 2244.94 1522.78C2241.96 1545.2 2238.99 1567.62 2236.34 1590.08C2235.48 1597.3 2234.49 1604.24 2230.01 1610.17C2223.58 1607.55 2224.68 1602.02 2224 1597.83C2219.72 1571.55 2215.8 1545.21 2211.85 1518.88C2206.41 1482.7 2201.05 1446.5 2195.63 1410.31C2191.7 1383.97 2187.72 1357.63 2183.78 1331.3C2178.35 1295.11 2172.92 1258.93 2167.53 1222.75C2163.6 1196.4 2159.72 1170.05 2155.81 1143.7C2151.62 1115.42 2147.43 1087.13 2143.21 1058.85C2137.9 1023.29 2132.66 987.727 2127.23 952.19C2120.31 906.82 2113.09 861.496 2106.25 816.113C2100.2 775.962 2094.57 735.748 2088.62 695.582C2083.16 658.721 2077.52 621.887 2071.97 585.041C2070.58 575.826 2068.93 566.64 2067.91 557.385C2067.34 552.227 2067.81 546.955 2067.81 542.098C2071.94 540.011 2073.35 542.582 2074.5 544.903C2076.86 549.678 2078.97 554.579 2081.12 559.456C2104.52 612.498 2127.91 665.546 2151.88 719.984Z" fill="black"/>
<path d="M2691.61 1028.17C2685.41 1070.01 2679.38 1110.12 2673.31 1150.23C2666.85 1192.97 2660.31 1235.71 2653.89 1278.46C2648.95 1311.34 2644.22 1344.25 2639.24 1377.13C2633.37 1415.91 2627.17 1454.64 2621.42 1493.44C2616.35 1527.66 2611.68 1561.93 2606.87 1596.18C2606.14 1601.37 2606.61 1607 2599.94 1611.09C2598.68 1609.19 2596.59 1607.42 2596.29 1605.4C2592.47 1579.75 2588.8 1554.09 2585.33 1528.4C2580.97 1496.09 2576.84 1463.76 2572.62 1431.44C2568.4 1399.15 2564.32 1366.84 2559.96 1334.57C2553.47 1286.46 2546.76 1238.39 2540.2 1190.29C2535.44 1155.39 2530.88 1120.46 2525.99 1085.58C2524.46 1074.61 2526.5 1064.5 2530.93 1054.51C2549.82 1011.89 2568.54 969.196 2587.31 926.523C2624.31 842.397 2661.28 758.261 2698.29 674.142C2715.73 634.52 2733.16 594.898 2750.78 555.354C2753.05 550.246 2753.86 543.629 2762.19 541.348C2762.55 544.306 2763.37 546.703 2763.03 548.931C2755.89 596.953 2748.54 644.944 2741.4 692.966C2735.34 733.751 2729.63 774.587 2723.52 815.364C2716.72 860.727 2709.58 906.038 2702.71 951.39C2698.93 976.384 2695.41 1001.42 2691.61 1028.17Z" fill="black"/>
<path d="M1814.82 1946.51C1825.73 1947.7 1835.04 1948.51 1844.34 1948.49C1967.65 1948.27 2090.96 1947.93 2214.27 1947.62C2218.94 1947.61 2223.66 1948.11 2228.26 1947.54C2246.82 1945.25 2258.24 1955.46 2267.52 1969.52C2268.15 1970.47 2267.78 1972.07 2267.94 1974.46C2265.1 1975.25 2262.09 1976.59 2259 1976.82C2252.36 1977.31 2245.68 1977.34 2239.02 1977.36C2076.38 1977.89 1913.74 1978.39 1751.11 1978.86C1743.78 1978.89 1736.42 1978.95 1729.14 1978.24C1722.48 1977.6 1718.18 1973.16 1717.39 1966.63C1716.76 1961.36 1716.77 1955.99 1716.77 1950.66C1716.61 1781.36 1716.47 1612.06 1716.38 1442.75C1716.38 1436.18 1716.93 1429.61 1717.29 1421.44C1721.46 1422.24 1724.94 1421.96 1727.07 1423.53C1731.32 1426.64 1734.88 1430.73 1738.65 1434.49C1756.62 1452.35 1774.06 1470.76 1792.68 1487.9C1803.98 1498.3 1807.84 1509.91 1807.8 1524.97C1807.58 1630.95 1808 1736.93 1808.23 1842.91C1808.29 1870.24 1808.3 1897.57 1808.55 1924.9C1808.61 1932.09 1807.45 1939.74 1814.82 1946.51Z" fill="black"/>
<path d="M3072.29 1532C3072.3 1509.34 3073.15 1488.64 3072.04 1468.05C3071.16 1451.82 3076.52 1439.58 3089.25 1430.11C3091.37 1428.53 3093.51 1426.98 3095.73 1425.55C3096.19 1425.25 3097.01 1425.5 3098.92 1425.5C3099.85 1427.03 3101.97 1429.02 3102.22 1431.23C3102.89 1437.16 3102.93 1443.19 3102.92 1449.17C3102.6 1614.43 3102.27 1779.68 3101.8 1944.93C3101.77 1954.7 3103.45 1964.98 3096.24 1975.14C3090.37 1975.52 3083.84 1976.32 3077.32 1976.31C2906.73 1976.03 2736.15 1975.7 2565.56 1975.23C2558.59 1975.21 2550.94 1976.96 2543.71 1970.7C2546.01 1967.09 2547.55 1963.46 2550.12 1960.86C2572.13 1938.59 2594.48 1916.64 2616.4 1894.27C2623.49 1887.04 2631.51 1884.26 2641.44 1884.38C2666.76 1884.69 2692.08 1884.45 2717.4 1884.47C2824.02 1884.54 2930.63 1884.63 3037.25 1884.66C3045.24 1884.66 3053.25 1884.55 3061.2 1883.85C3067.9 1883.25 3070.91 1880.28 3071.46 1873.8C3072.14 1865.85 3072.25 1857.84 3072.26 1849.85C3072.31 1744.57 3072.29 1639.28 3072.29 1532Z" fill="black"/>
<path d="M2140.74 1387.58C2094.88 1300.1 2049.64 1213.96 2004.48 1127.8C1972.92 1067.6 1941.5 1007.32 1909.93 947.128C1879.92 889.884 1849.79 832.701 1819.75 775.469C1818.27 772.656 1817.2 769.63 1816.11 767.087C1819.58 763.64 1821.81 765.474 1823.7 767.214C1827.61 770.827 1831.45 774.542 1835.06 778.455C1871.22 817.623 1907.23 856.925 1943.45 896.023C1993.73 950.281 2044.08 1004.47 2094.56 1058.54C2119.14 1084.87 2118.84 1084.78 2123.85 1121.4C2129.61 1163.6 2136.26 1205.68 2142.59 1247.81C2150.91 1303.08 2159.29 1358.34 2167.66 1413.6C2168.42 1418.67 2170.05 1423.88 2164.52 1428.48C2157.58 1423.14 2155.53 1415.09 2151.6 1408.38C2147.91 1402.07 2144.77 1395.41 2140.74 1387.58Z" fill="black"/>
<path d="M2727.09 1315.47C2706.93 1353.17 2687.42 1389.55 2667.78 1425.85C2667.34 1426.66 2665.47 1426.7 2664.27 1427.1C2660.66 1425.95 2661.57 1423.07 2661.93 1420.58C2667.62 1381.72 2673.37 1342.87 2679.1 1304.02C2685.01 1263.86 2690.92 1223.7 2696.84 1183.54C2700.82 1156.54 2704.77 1129.54 2708.86 1102.55C2710.58 1091.17 2714.74 1081.23 2722.97 1072.43C2780.29 1011.05 2837.23 949.313 2894.28 887.687C2929.6 849.54 2964.89 811.368 3000.26 773.268C3003.23 770.066 3006.7 767.329 3009.87 764.447C3015.62 769.41 3011.33 772.64 3009.74 775.692C2979.58 833.623 2949.35 891.518 2919 949.354C2873.18 1036.7 2827.22 1123.98 2781.38 1211.32C2763.42 1245.55 2745.61 1279.86 2727.09 1315.47Z" fill="black"/>
<path d="M2664.73 1496.4C2688.98 1450.25 2712.98 1405.64 2735.76 1360.41C2743.49 1345.06 2754.58 1335.86 2770.03 1329.16C2892.3 1276.14 3014.34 1222.58 3136.5 1169.29C3142.37 1166.73 3147.92 1162.35 3154.87 1163.74C3157.43 1169.61 3152.61 1171.31 3149.94 1173.49C3130.85 1189.09 3111.57 1204.46 3092.31 1219.85C3018.9 1278.5 2945.47 1337.12 2872.05 1395.77C2801.24 1452.33 2730.46 1508.93 2659.61 1565.43C2655.02 1569.09 2649.93 1572.12 2643.59 1576.46C2642.04 1572.17 2640.11 1569.39 2640.2 1566.67C2640.78 1549.13 2644.33 1532.34 2653.53 1517.03C2657.31 1510.76 2660.53 1504.15 2664.73 1496.4Z" fill="black"/>
<path d="M1883.65 1336.22C1813.05 1279.38 1743.55 1223.43 1674.09 1167.43C1673.74 1167.15 1673.93 1166.2 1673.86 1165.44C1677.11 1160.52 1681.02 1163.91 1684.16 1165.24C1706.22 1174.65 1728.15 1184.37 1750.13 1193.98C1853.3 1239.08 1956.47 1284.19 2059.63 1329.29C2062.68 1330.63 2065.66 1332.16 2068.78 1333.3C2078.7 1336.95 2085.21 1343.84 2090.05 1353.2C2105.95 1383.98 2122.3 1414.52 2138.47 1445.17C2152.15 1471.1 2165.49 1497.21 2179.62 1522.89C2186.95 1536.23 2188.12 1550.74 2189.96 1565.19C2190.32 1567.97 2188.01 1571.09 2186.79 1574.45C2177.52 1572.57 2171.87 1566.67 2165.77 1561.81C2129.81 1533.16 2094.01 1504.32 2058.11 1475.61C2000.35 1429.42 1942.55 1383.28 1883.65 1336.22Z" fill="black"/>
<path d="M2046.16 1741.84C2075.93 1771.51 2104.7 1800.17 2133.4 1828.9C2134.19 1829.69 2134.16 1831.31 2134.88 1833.86C2132.23 1834.97 2129.53 1836.77 2126.62 1837.2C2122.04 1837.88 2117.32 1837.74 2112.67 1837.77C2036.75 1838.35 1960.83 1838.91 1884.91 1839.42C1879.59 1839.46 1874.24 1839.41 1868.95 1838.91C1862.93 1838.34 1859.3 1834.4 1858.21 1828.74C1857.33 1824.21 1857.24 1819.47 1857.25 1814.83C1857.45 1736.25 1857.66 1657.66 1858.07 1579.08C1858.1 1573.52 1856.08 1566.94 1863.39 1562.14C1880.26 1574.76 1893.95 1591.03 1909.1 1605.67C1924.42 1620.48 1939.37 1635.68 1954.48 1650.7C1969.59 1665.73 1984.71 1680.74 1999.82 1695.77C2014.94 1710.79 2030.05 1725.82 2046.16 1741.84Z" fill="black"/>
<path d="M2687.05 1826.89C2692.49 1820.56 2697.41 1815.13 2702.59 1809.97C2755.42 1757.29 2808.31 1704.66 2861.15 1652C2888.99 1624.26 2916.74 1596.44 2944.65 1568.78C2948.28 1565.18 2952.65 1562.31 2957.58 1558.37C2959.54 1561.78 2961.59 1563.83 2961.83 1566.07C2962.54 1572.67 2962.75 1579.35 2962.77 1585.99C2962.99 1659.27 2963.16 1732.54 2963.26 1805.82C2963.27 1812.46 2963.12 1819.16 2962.22 1825.72C2961.55 1830.67 2958.09 1834.13 2952.91 1834.8C2948.3 1835.39 2943.62 1835.59 2938.97 1835.57C2861.04 1835.21 2783.1 1834.81 2705.16 1834.35C2700.52 1834.32 2695.76 1834.3 2691.29 1833.27C2689.43 1832.84 2688.17 1829.78 2687.05 1826.89Z" fill="black"/>
<path d="M2743.47 396.511C2733.51 368.246 2724.53 341.107 2715.57 313.964C2712.03 303.228 2708.79 292.377 2704.9 281.77C2700.34 269.361 2697.16 267.368 2684.35 267.177C2682.35 267.147 2680.36 267.256 2678.36 267.337C2670.98 267.635 2665.64 270.799 2663.37 278.158C2662 282.601 2660.66 287.054 2659.39 291.527C2650.5 322.876 2641.66 354.24 2632.73 385.575C2631.65 389.359 2630.84 393.663 2628.45 396.475C2626.81 398.396 2622.47 399.007 2619.62 398.531C2617.95 398.251 2615.5 394.555 2615.7 392.638C2616.32 386.753 2617.72 380.889 2619.4 375.188C2633.84 326.056 2648.44 276.971 2662.92 227.852C2667.81 211.263 2672.44 194.595 2677.34 178.009C2679.03 172.281 2681 166.616 2683.19 161.062C2684.64 157.405 2686.25 153.404 2691.15 153.202C2696.96 152.962 2699.02 157.333 2700.9 161.679C2702.23 164.728 2703.41 167.847 2704.49 170.991C2728.91 242.072 2753.34 313.149 2777.63 384.275C2779.05 388.43 2779.28 392.992 2780.21 398.171C2767.36 401.836 2755.91 402.908 2743.47 396.511ZM2684.59 220.078C2683.39 220.298 2681.29 220.223 2681.1 220.782C2678.63 228.237 2675.93 235.678 2674.31 243.337C2673.16 248.756 2677.97 252.089 2684.92 251.612C2690.29 251.244 2693.61 247.607 2692.37 242.254C2690.74 235.199 2688.25 228.342 2684.59 220.078Z" fill="black"/>
<path d="M2304.58 172.245C2307.12 165.912 2308.71 160.792 2311.32 156.255C2313.82 151.893 2320.76 151.763 2323.07 156.006C2326.22 161.806 2328.95 167.924 2331.1 174.167C2349.95 228.893 2368.61 283.679 2387.35 338.441C2391.87 351.657 2396.55 364.819 2400.97 378.072C2402.84 383.685 2404.2 389.467 2406.11 396.311C2401.93 397.99 2398.54 400.375 2395.05 400.55C2387.17 400.945 2379.23 400.246 2370.23 399.957C2367.76 394.07 2365.1 388.803 2363.29 383.261C2354.2 355.44 2345.33 327.547 2336.39 299.678C2334.56 293.98 2332.97 288.195 2330.88 282.593C2328.82 277.064 2327.41 270.563 2320.79 268.649C2312.35 266.207 2303.65 265.884 2295.44 269.629C2293.29 270.613 2291.5 273.188 2290.36 275.443C2288.57 278.978 2287.21 282.789 2286.11 286.611C2278.22 314.095 2270.45 341.614 2262.63 369.118C2260.63 376.157 2258.74 383.236 2256.45 390.179C2255.64 392.612 2254.23 395.333 2252.26 396.748C2250.42 398.071 2247.06 398.809 2245.1 398.012C2243.19 397.238 2240.8 393.969 2241.07 392.175C2242.18 384.991 2243.95 377.868 2246.01 370.876C2265.3 305.137 2284.7 239.429 2304.58 172.245ZM2300.9 234.977C2300.48 238.22 2299.76 241.464 2299.75 244.707C2299.75 246.502 2300.96 248.297 2301.58 249.981C2307.7 252.276 2313.21 253.14 2317.46 247.381C2315.33 227.515 2314.9 226.395 2306.24 219.524C2304.68 224.079 2303.23 228.298 2300.9 234.977Z" fill="black"/>
<path d="M2120.5 168.624C2093.65 169.869 2076.96 183.139 2065.68 205.039C2056.32 223.207 2052.25 242.69 2050.33 262.61C2048.15 285.314 2049.92 308.003 2056.62 329.867C2059.9 340.576 2064.41 351.241 2070.24 360.776C2084.67 384.375 2106.71 392.876 2133.6 388.968C2151 386.439 2167.03 380.145 2181.01 369.143C2184.12 366.697 2187.41 364.359 2190.94 362.634C2192.21 362.016 2194.62 363.027 2196.13 363.933C2196.94 364.422 2197.54 366.474 2197.2 367.452C2196.1 370.54 2195.25 374.289 2192.98 376.276C2186.54 381.927 2180.1 388.286 2172.48 391.758C2149.06 402.419 2124.99 406.782 2098.72 401.478C2066.21 394.916 2042.96 377.375 2026.63 349.551C2019.15 336.804 2014.45 322.735 2012.32 308.19C2006.53 268.778 2010.28 230.97 2034.55 197.589C2057.77 165.651 2090.38 153.597 2128.66 155.181C2142.67 155.761 2156.35 159.262 2169.21 165.142C2178.99 169.614 2188.08 175.191 2194.37 184.257C2196.61 187.484 2198.8 191.065 2196.22 195.212C2194.58 197.848 2189.71 197.548 2185.68 193.593C2168 176.221 2146.1 169.905 2120.5 168.624Z" fill="black"/>
<path d="M2466.15 174.305C2485.19 156.602 2506.01 150.377 2529.75 157.943C2544.09 162.513 2555.99 170.901 2562.6 185.099C2563.22 186.433 2562.47 189.359 2561.33 190.291C2560.19 191.226 2557.25 191.344 2555.99 190.497C2552.71 188.293 2550.18 184.967 2546.88 182.81C2540.81 178.841 2534.71 174.635 2528.07 171.86C2505.51 162.431 2481.26 175.533 2476.46 202.956C2473.89 217.627 2477.63 230.588 2488.5 241.27C2498.6 251.204 2510.35 258.583 2523.1 264.554C2535.23 270.231 2546.62 277.101 2556.18 286.593C2568.83 299.148 2577.53 313.821 2578.7 332.028C2581.26 371.891 2553.03 403.477 2512.75 403.735C2497.73 403.831 2482.57 399.736 2467.68 396.545C2460.61 395.029 2453.93 391.201 2450.12 384.356C2449.27 382.843 2448.92 379.706 2449.8 378.877C2451.42 377.36 2454.75 375.672 2456.28 376.382C2468.43 381.999 2480.86 386.395 2494.13 388.594C2502.79 390.03 2511.28 390.463 2519.84 388.241C2544.7 381.788 2556.65 357.128 2546.31 333.532C2542.2 324.127 2535.7 316.48 2527.4 310.752C2518.68 304.723 2509.2 299.786 2500.18 294.174C2491.17 288.57 2481.71 283.459 2473.49 276.846C2444.77 253.747 2440.97 220.509 2456.47 188.716C2458.78 183.978 2462.24 179.801 2466.15 174.305Z" fill="black"/>
</g>
<defs>
<clipPath id="clip0_1_3">
<rect width="4801" height="4800" fill="white"/>
</clipPath>
</defs>
</svg>
